<?xml version="1.0" encoding="UTF-8"?>
<svg version="1.1" xmlns="http://www.w3.org/2000/svg" width="32" height="32">
<path d="M0 0 C10.56 0 21.12 0 32 0 C32 10.56 32 21.12 32 32 C21.44 32 10.88 32 0 32 C0 21.44 0 10.88 0 0 Z " fill="#E7E7E7" transform="translate(0,0)"/>
<path d="M0 0 C0.33 0.66 0.66 1.32 1 2 C0.0625 4.625 0.0625 4.625 -1 7 C-1.66 7 -2.32 7 -3 7 C-3 7.66 -3 8.32 -3 9 C-4.5 10.625 -4.5 10.625 -6 12 C-5.01 12 -4.02 12 -3 12 C-3.33 13.65 -3.66 15.3 -4 17 C-4.66 16.01 -5.32 15.02 -6 14 C-6.99 15.485 -6.99 15.485 -8 17 C-10.6015625 17.29296875 -10.6015625 17.29296875 -13.625 17.1875 C-15.12933594 17.14689453 -15.12933594 17.14689453 -16.6640625 17.10546875 C-17.43492188 17.07066406 -18.20578125 17.03585938 -19 17 C-19 14 -19 14 -18 12 C-16 13 -16 13 -14 15 C-14 14.01 -14 13.02 -14 12 C-13.34 12 -12.68 12 -12 12 C-11.67 12.66 -11.34 13.32 -11 14 C-11 13.01 -11 12.02 -11 11 C-11.515625 10.54625 -12.03125 10.0925 -12.5625 9.625 C-13.2740625 8.820625 -13.2740625 8.820625 -14 8 C-13.6875 5.3125 -13.6875 5.3125 -13 3 C-12.01 2.814375 -12.01 2.814375 -11 2.625 C-7.30301417 1.85479462 -3.65994058 0.93049337 0 0 Z " fill="#D1BB88" transform="translate(24,7)"/>
<path d="M0 0 C2 1 2 1 4 3 C4 2.01 4 1.02 4 0 C4.66 0 5.32 0 6 0 C6.33 0.66 6.66 1.32 7 2 C7.33 1.34 7.66 0.68 8 0 C9.32 0.33 10.64 0.66 12 1 C11.34 2.32 10.68 3.64 10 5 C6.37 5 2.74 5 -1 5 C-1 2 -1 2 0 0 Z " fill="#5A5A59" transform="translate(6,19)"/>
<path d="M0 0 C0.33 0.66 0.66 1.32 1 2 C0.67 2.99 0.34 3.98 0 5 C-1.32 5 -2.64 5 -4 5 C-4.33 5.99 -4.66 6.98 -5 8 C-5 7.01 -5 6.02 -5 5 C-5.99 4.67 -6.98 4.34 -8 4 C-5.53721199 1.53721199 -3.29323018 1.00228745 0 0 Z " fill="#D7AC44" transform="translate(24,7)"/>
<path d="M0 0 C0.99 0 1.98 0 3 0 C3 1.65 3 3.3 3 5 C2.01 5 1.02 5 0 5 C0 4.34 0 3.68 0 3 C-0.66 3 -1.32 3 -2 3 C-2.33 3.66 -2.66 4.32 -3 5 C-2.67 3.68 -2.34 2.36 -2 1 C-1.34 1.33 -0.68 1.66 0 2 C0 1.34 0 0.68 0 0 Z " fill="#636362" transform="translate(25,19)"/>
</svg>
